<svg version="1.1" xmlns="http://www.w3.org/2000/svg" xmlns:xlink="http://www.w3.org/1999/xlink" width="366" height="324" viewBox="0,0,366,324"><g transform="translate(-57,-18)"><g data-paper-data="{&quot;isPaintingLayer&quot;:true}" fill-rule="nonzero" stroke="none" stroke-width="0" stroke-linecap="butt" stroke-linejoin="miter" stroke-miterlimit="10" stroke-dasharray="" stroke-dashoffset="0" style="mix-blend-mode: normal"><path d="M423,180c0,89.47013 -81.93189,162 -183,162c-101.06811,0 -183,-72.52987 -183,-162c0,-89.47013 81.93189,-162 183,-162c101.06811,0 183,72.52987 183,162z" fill="#000000"/><path d="M158.5,145c0,48.8772 -0.89543,88.5 -2,88.5c-1.10457,0 -2,-39.6228 -2,-88.5c0,-48.8772 0.89543,-88.5 2,-88.5c1.10457,0 2,39.6228 2,88.5z" fill="#ff0000"/><path d="M310.5,143c0,48.8772 -0.89543,88.5 -2,88.5c-1.10457,0 -2,-39.6228 -2,-88.5c0,-48.8772 0.89543,-88.5 2,-88.5c1.10457,0 2,39.6228 2,88.5z" fill="#ff0000"/></g></g></svg>