<svg version="1.1" xmlns="http://www.w3.org/2000/svg" xmlns:xlink="http://www.w3.org/1999/xlink" width="231.5" height="154.5" viewBox="0,0,231.5,154.5"><g transform="translate(-127.25,-114.25)"><g data-paper-data="{&quot;isPaintingLayer&quot;:true}" fill-rule="nonzero" stroke-linecap="butt" stroke-linejoin="miter" stroke-miterlimit="10" stroke-dasharray="" stroke-dashoffset="0" style="mix-blend-mode: normal"><path d="M128.5,145.5v-30h229v30z" fill="#0033ff" stroke="#000000" stroke-width="2.5"/><text transform="translate(212.5,136.5) scale(0.5,0.5)" font-size="40" xml:space="preserve" fill="#ffffff" fill-rule="nonzero" stroke="none" stroke-width="1" stroke-linecap="butt" stroke-linejoin="miter" stroke-miterlimit="10" stroke-dasharray="" stroke-dashoffset="0" font-family="Sans Serif" font-weight="normal" text-anchor="start" style="mix-blend-mode: normal"><tspan x="0" dy="0">ERROR</tspan></text><path d="M128.5,267.5v-124h229v124z" fill="#ffffff" stroke="#000000" stroke-width="2.5"/><path d="M143.5,233.5v-75h73v75z" fill="#000000" stroke="none" stroke-width="0"/><path d="M202.86772,223.06563c-0.5818,3.83282 -0.04219,10.56427 -3.87469,12.79544c-0.50621,0.2947 -4.29022,0.27183 -5.75127,0.26512c-1.38967,1.24982 -2.96381,2.3387 -4.52486,2.60278c-1.76692,0.29891 -4.09594,1.15324 -5.37511,-0.10178c-0.69565,-0.68251 -0.77549,-1.71626 -0.62385,-2.78575c-3.74967,-0.191 -7.48927,-0.45499 -11.30157,-0.71678c-1.8136,0.18817 -5.97918,0.78974 -7.15092,-0.3287c-1.01156,-0.96555 -0.01003,-2.80056 -0.14036,-4.19288c-0.21058,-2.24967 -1.41759,-4.19935 0.10722,-6.51605c0.47047,-0.7148 0.98779,-1.25612 1.54421,-1.66282c-1.58123,-0.80456 -3.76863,-1.10565 -5.06709,-1.5525c-2.12368,-0.73084 -4.07462,-1.99388 -5.7944,-3.43835c-1.16078,-0.97496 -2.87386,-1.43371 -3.61921,-2.75371c-0.68675,-1.2162 -0.19721,-2.78643 -0.29581,-4.17964c0,0 0,-0.00957 0.00059,-0.02753c-2.38855,-2.72731 -3.08545,-5.02158 -3.00059,-8.97247c0.02835,-1.32012 -0.38566,-2.76852 0.1903,-3.95671c1.49493,-3.084 5.0977,-4.98881 8.48934,-3.24748c2.41842,1.24166 3.43262,5.07814 4.19206,7.41362c0.03226,0.09922 0.07152,0.20245 0.11549,0.30864c-0.01375,-0.83902 0.01281,-1.6788 0.01281,-2.51807c0,-5 0,-10 0,-15c0,-3.66349 -0.10017,-7.33816 0,-11c0.03611,-1.31993 -0.38566,-2.76852 0.1903,-3.95671c0.68945,-1.42232 1.88828,-2.75888 3.35299,-3.35299c1.51771,-0.61561 3.39571,-0.61561 4.91342,0c5.24303,2.12666 3.28034,7.27891 3.38374,11.51557c0.02274,0.04934 0.04502,0.09891 0.06681,0.14871c0.53701,1.22723 0.90782,2.56825 1.16323,3.95433c0.0654,-0.13388 0.12742,-0.26929 0.18371,-0.40729c0.30597,-0.74999 0.65623,-1.50129 0.77807,-2.30208c0.32299,-2.12282 -1.13098,-9.04493 0.69995,-10.36731c6.83758,-4.9384 8.03031,3.63953 9.23549,7.36731c0.01076,1.13349 0.02976,2.26692 0.03228,3.40046c0.002,0.8982 -0.02561,1.79637 -0.01873,2.69454c0.00596,0.77853 -0.15378,1.58554 0.05726,2.33494c0.13701,0.48651 1.06718,-0.48789 1.15177,-0.98619c0.4389,-2.58539 -1.0439,-5.89019 -0.15802,-8.44375c0.63422,-1.82814 1.01697,-4.5598 2.89334,-5.03267c4.49854,-1.13369 6.23778,7.09418 6.94609,9.64255c0.23051,0.82933 0.21065,2.53015 1.05391,2.35745c0.83858,-0.17175 0.09922,-1.71125 0.07438,-2.56688c-0.08739,-3.01065 0.53782,-10.71035 5.5,-10.5c5.12937,0.21744 4.36256,4.64242 4.5,7.5c0,5.34072 -0.80491,11.33046 -0.03228,16.59954c0.15293,1.04294 0.83216,1.95936 1,3c0.62889,3.89931 0.03228,8.44504 0.03228,12.40046c0,2.18575 0.8227,8.81985 -0.47189,10.46178c-0.98096,1.24414 -2.82475,1.8048 -4.65311,2.00881v1.90442l-0.06584,0z" fill="#ffffff" stroke="none" stroke-width="0.5"/><text transform="translate(220.625,167.9375) scale(0.58138,0.64626)" font-size="40" xml:space="preserve" fill="#000000" fill-rule="nonzero" stroke="none" stroke-width="1" stroke-linecap="butt" stroke-linejoin="miter" stroke-miterlimit="10" stroke-dasharray="" stroke-dashoffset="0" font-family="Sans Serif" font-weight="normal" text-anchor="start" style="mix-blend-mode: normal"><tspan x="0" dy="0">AN ERROR</tspan><tspan x="0" dy="46.15px">[REDACTED]</tspan></text></g></g></svg>